<?xml version="1.0" standalone="no"?>
<!DOCTYPE svg PUBLIC "-//W3C//DTD SVG 20010904//EN"
 "http://www.w3.org/TR/2001/REC-SVG-20010904/DTD/svg10.dtd">
<svg version="1.0" xmlns="http://www.w3.org/2000/svg"
 width="700.000000pt" height="700.000000pt" viewBox="0 0 700.000000 700.000000"
 preserveAspectRatio="xMidYMid meet">
<metadata>
Created by potrace 1.14, written by Peter Selinger 2001-2017
</metadata>
<g transform="translate(0.000000,700.000000) scale(0.100000,-0.100000)"
fill="#000000" stroke="none">
<path d="M3415 5912 c-93 -49 -318 -164 -500 -256 -181 -93 -384 -197 -450
-231 -66 -34 -231 -119 -366 -188 -135 -69 -319 -163 -410 -210 -90 -46 -233
-119 -318 -163 -118 -60 -156 -84 -165 -105 -8 -18 -11 -210 -10 -645 1 -340
2 -630 3 -643 1 -25 13 -38 195 -206 65 -61 137 -127 160 -149 61 -57 254
-237 290 -270 41 -37 133 -123 226 -211 41 -38 131 -122 199 -185 68 -63 136
-126 151 -140 15 -14 80 -74 145 -135 65 -60 131 -121 145 -135 125 -116 339
-315 420 -390 59 -55 272 -254 294 -275 44 -43 80 -65 103 -65 14 0 102 40
196 89 95 49 285 146 422 216 138 70 304 156 370 190 66 34 246 127 400 205
154 78 352 180 440 225 88 45 246 126 350 180 105 53 201 108 214 121 l24 23
1 623 c1 343 -2 639 -6 658 -5 23 -21 48 -50 74 -47 42 -259 240 -318 296
-105 100 -131 120 -156 120 -15 0 -136 -56 -269 -125 -134 -68 -385 -197 -559
-285 l-316 -161 0 266 0 267 -62 64 -62 65 -1 554 0 554 -30 32 c-17 18 -41
43 -55 55 -14 12 -43 39 -66 60 -307 291 -347 324 -383 324 -14 0 -102 -40
-196 -88z m250 -164 c172 -158 240 -227 230 -236 -5 -5 -167 -89 -360 -187
-192 -98 -363 -185 -380 -195 -16 -10 -178 -93 -360 -185 -181 -92 -336 -173
-344 -178 -43 -35 -32 -107 24 -154 34 -29 72 -65 292 -271 145 -136 157 -145
193 -144 15 0 97 36 181 80 487 251 568 292 576 292 19 0 315 -282 306 -291
-4 -4 -102 -56 -218 -115 -406 -208 -450 -232 -469 -257 -24 -32 -14 -80 23
-116 23 -22 185 -173 285 -265 17 -16 58 -55 91 -86 67 -63 93 -80 126 -80 19
0 140 60 634 315 77 40 248 127 380 195 132 67 300 154 373 192 73 38 139 68
146 66 7 -2 64 -50 126 -108 62 -58 130 -121 152 -141 l39 -35 -113 -58 c-333
-172 -456 -235 -693 -356 -143 -73 -336 -172 -430 -220 -93 -48 -262 -135
-375 -193 -113 -57 -284 -145 -380 -195 l-176 -90 -69 67 c-39 36 -123 116
-189 176 -65 61 -135 126 -156 145 -20 19 -64 59 -96 89 -32 30 -113 105 -179
167 -66 61 -136 126 -155 144 -19 18 -86 80 -149 139 -63 58 -129 120 -147
136 -112 104 -263 245 -294 275 -20 19 -66 62 -101 94 -121 112 -282 261 -319
296 -20 19 -85 80 -143 134 -59 54 -107 102 -107 106 0 3 69 42 153 85 207
106 446 228 732 375 132 67 303 155 380 195 77 40 280 144 450 230 171 87 337
173 370 191 33 18 63 33 66 34 3 0 37 -28 74 -62z m306 -410 c3 -46 0 -750 -3
-753 -2 -2 -39 30 -83 72 -43 41 -89 81 -101 89 -52 35 -52 35 -419 -156 -71
-37 -190 -98 -263 -135 l-132 -68 -58 54 c-31 30 -84 79 -117 111 -33 31 -78
72 -99 92 -22 20 -38 37 -35 39 2 3 144 75 314 162 320 163 434 222 778 399
111 58 205 105 210 105 4 1 7 -5 8 -11z m-2426 -979 c28 -25 79 -73 115 -106
36 -34 81 -75 100 -93 19 -18 86 -80 149 -139 63 -58 129 -119 146 -136 18
-16 88 -82 155 -145 68 -63 132 -123 144 -133 12 -10 53 -48 91 -84 39 -37 95
-89 125 -117 99 -93 213 -199 348 -325 74 -69 143 -133 155 -144 19 -16 154
-142 316 -293 l54 -51 1 -497 c1 -273 -1 -496 -4 -496 -5 0 -33 26 -234 214
-65 61 -128 119 -138 128 -11 9 -72 66 -136 126 -64 60 -131 123 -148 138 -56
52 -255 238 -294 274 -21 19 -64 59 -96 89 -33 30 -95 88 -140 130 -68 64
-216 202 -338 315 -44 41 -254 236 -286 266 -14 14 -79 74 -143 134 l-117 109
0 500 0 500 63 -59 c34 -32 85 -79 112 -105z m2550 -470 l0 -222 -112 -59
-111 -58 -44 40 c-23 23 -90 85 -147 138 -57 53 -108 99 -112 100 -23 9 3 26
159 105 92 47 210 107 262 134 52 28 97 49 100 47 3 -1 5 -102 5 -225z m1668
-1250 c-8 -6 -106 -57 -588 -304 -288 -148 -589 -302 -780 -400 -88 -45 -290
-149 -450 -230 -159 -81 -294 -152 -299 -156 -29 -27 -31 0 -31 510 l0 518
165 85 c166 86 410 211 790 406 394 202 607 310 845 433 132 67 265 135 295
150 l55 26 3 -515 c1 -284 -1 -519 -5 -523z"/>
</g>
</svg>
